# xmcd CD database file
# Copyright (C) 1993-1998 Ti Kan
# 
# Track frame offsets:
#     180
#     18692
#     37976
#     54243
#     73371
#     94805
#     113301
#     136410
#     157011
#     177527
#     195053
#     219835
#     242579
#     260276
#     278657
#     296167
# 
# Disc length: 4192 seconds
# 
# Revision: 1
# Processed by: cddbd v1.4b41PL1 Copyright (c) Steve Scherf et al.
# Submitted via: DiscPlay 4.0.4
# 
DISCID=df105e10
DTITLE=Chris De Burgh - The Music Of Chris De Burgh, 16 instrumental hits
DYEAR=1900
DGENRE=
TTITLE0=The Lady In Red
TTITLE1=High On Emotion
TTITLE2=Don't Pay The Ferryman
TTITLE3=Missing You
TTITLE4=Sailing Away
TTITLE5=The Traveller
TTITLE6=Spanish Train
TTITLE7=Tender Hands
TTITLE8=The Simple Truth
TTITLE9=Where Peaceful Waters Flow
TTITLE10=The Last Time I Cried
TTITLE11=Borderline
TTITLE12=Fatal Hesitation
TTITLE13=Carry Me
TTITLE14=Patricia The Stripper
TTITLE15=The Ecstacy Of Flight
EXTD=
EXTT0=
EXTT1=
EXTT2=
EXTT3=
EXTT4=
EXTT5=
EXTT6=
EXTT7=
EXTT8=
EXTT9=
EXTT10=
EXTT11=
EXTT12=
EXTT13=
EXTT14=
EXTT15=
PLAYORDER=
